# xmcd CD database file
#
# Track frame offsets:
#	150
#	14275
#	28307
#	42098
#	53828
#	69350
#	85642
#	101063
#	113733
#	126878
#	138485
#	159976
#	182671
#	201761
#	227383
#	246277
#	268459
#	281982
#	309034
#	328395
#
# Disc length: 4582 seconds
#
# Revision: 0
# Processed by: cddbd v1.5.2PL0 Copyright (c) Steve Scherf et al.
# Submitted via: CDex 2.14
#
DISCID=1b11e414
DTITLE=Dizzy Gillespie - The Essential Recordings [CD2)
DYEAR=2017
DGENRE=Jazz
TTITLE0=Manteca
TTITLE1=St. Louis Blues
TTITLE2=Katy (Dizzier And Dizzier)
TTITLE3=In The Land Of Oo-Bla-Dee
TTITLE4=Bloomdido
TTITLE5=Mohawk
TTITLE6=My Melancholy Baby
TTITLE7=Relaxin' With Lee
TTITLE8=Swing Low Sweet Chariot
TTITLE9=Interlude In C
TTITLE10=Jungla
TTITLE11=Con Alma
TTITLE12=Tin Tin Deo
TTITLE13=On The Sunny Side Of The Street
TTITLE14=Jordu
TTITLE15=Birk's Works
TTITLE16=Umbrella Man
TTITLE17=My Heart Belongs To Daddy
TTITLE18=My Man
TTITLE19=There Is No Greater Love
EXTD=YEAR: 2017
EXTT0=
EXTT1=
EXTT2=
EXTT3=
EXTT4=
EXTT5=
EXTT6=
EXTT7=
EXTT8=
EXTT9=
EXTT10=
EXTT11=
EXTT12=
EXTT13=
EXTT14=
EXTT15=
EXTT16=
EXTT17=
EXTT18=
EXTT19=
PLAYORDER=
